<?xml version="1.0" encoding="UTF-8" standalone="no"?>
<svg width="60px" height="48px" viewBox="0 0 60 48" version="1.1" xmlns="http://www.w3.org/2000/svg" xmlns:xlink="http://www.w3.org/1999/xlink">
    <!-- Generator: Sketch 3.6.1 (26313) - http://www.bohemiancoding.com/sketch -->
    <title>code copy</title>
    <desc>Created with Sketch.</desc>
    <defs></defs>
    <g id="Page-1" stroke="none" stroke-width="1" fill="none" fill-rule="evenodd">
        <g id="Skillsets-Alternate-Copy" transform="translate(-21.000000, -147.000000)" fill="#FFFFFF">
            <g id="Web-Development" transform="translate(21.000000, 147.000000)">
                <g id="code-copy">
                    <g id="Group">
                        <g id="Shape">
                            <path d="M58.4191304,0 L1.32770751,0 C0.594812964,0 0,0.667360145 0,1.48964318 L0,4.46892954 L0,32.0273284 L0,36.4962579 C0,37.3185409 0.594812964,37.9859011 1.32770751,37.9859011 L20.9113933,37.9859011 L20.9113933,46.1789386 L15.9324901,46.1789386 C15.565379,46.1789386 15.2686363,46.5118738 15.2686363,46.9237602 C15.2686363,47.3356465 15.565379,47.6685818 15.9324901,47.6685818 L21.575247,47.6685818 L38.1715909,47.6685818 L43.8143478,47.6685818 C44.1814589,47.6685818 44.4782015,47.3356465 44.4782015,46.9237602 C44.4782015,46.5118738 44.1814589,46.1789386 43.8143478,46.1789386 L38.8354446,46.1789386 L38.8354446,37.9859011 L58.4191304,37.9859011 C59.1520249,37.9859011 59.7468379,37.3185409 59.7468379,36.4962579 L59.7468379,32.0273284 L59.7468379,4.46892954 L59.7468379,1.48964318 C59.7468379,0.667360145 59.1520249,0 58.4191304,0 L58.4191304,0 Z M1.32770751,1.48964318 L58.4191304,1.48964318 L58.4191304,2.97928636 L1.32770751,2.97928636 L1.32770751,1.48964318 L1.32770751,1.48964318 Z M1.32770751,4.46892954 L58.4191304,4.46892954 L58.4191304,32.0273284 L1.32770751,32.0273284 L1.32770751,4.46892954 L1.32770751,4.46892954 Z M22.2391008,46.1789386 L22.2391008,37.9859011 L37.5077371,37.9859011 L37.5077371,46.1789386 L22.2391008,46.1789386 L22.2391008,46.1789386 Z M58.4191304,36.4962579 L38.1715909,36.4962579 L21.575247,36.4962579 L1.32770751,36.4962579 L1.32770751,33.5169716 L58.4191304,33.5169716 L58.4191304,36.4962579 L58.4191304,36.4962579 Z"></path>
                            <path d="M22.952364,13.4124014 C22.6927972,13.1211761 22.2732417,13.1211761 22.0136748,13.4124014 L17.3195649,18.6790348 C17.0599981,18.9702601 17.0599981,19.4409873 17.3195649,19.7322126 L22.0136748,24.998846 C22.1431263,25.1440862 22.3130729,25.2170788 22.4830194,25.2170788 C22.652966,25.2170788 22.8229126,25.1440862 22.952364,24.998846 C23.2119309,24.7076208 23.2119309,24.2368936 22.952364,23.9456683 L18.7275988,19.2056237 L22.952364,14.4655791 C23.2119309,14.1743539 23.2119309,13.7028818 22.952364,13.4124014 L22.952364,13.4124014 Z"></path>
                            <path d="M37.6664626,13.4124014 C37.4068958,13.1211761 36.9873402,13.1211761 36.7277734,13.4124014 C36.4682066,13.7036266 36.4682066,14.1743539 36.7277734,14.4655791 L40.9525387,19.2056237 L36.7277734,23.9456683 C36.4682066,24.2368936 36.4682066,24.7076208 36.7277734,24.998846 C36.8572249,25.1440862 37.0271715,25.2170788 37.197118,25.2170788 C37.3670646,25.2170788 37.5370111,25.1440862 37.6664626,24.998846 L42.3605725,19.7322126 C42.6201393,19.4409873 42.6201393,18.9702601 42.3605725,18.6790348 L37.6664626,13.4124014 L37.6664626,13.4124014 Z"></path>
                            <path d="M36.9601635,18.7269428 L22.3553809,18.7269428 C21.9882697,18.7269428 21.6915271,19.0598781 21.6915271,19.4717644 C21.6915271,19.8836508 21.9882697,20.216586 22.3553809,20.216586 L36.9601635,20.216586 C37.3272746,20.216586 37.6240172,19.8836508 37.6240172,19.4717644 C37.6240172,19.0598781 37.3272746,18.7269428 36.9601635,18.7269428 L36.9601635,18.7269428 Z" transform="translate(29.657772, 19.471764) rotate(127.000000) translate(-29.657772, -19.471764) "></path>
                        </g>
                    </g>
                </g>
            </g>
        </g>
    </g>
</svg>