<?xml version="1.0" encoding="UTF-8" standalone="no"?>
<svg width="115px" height="83px" viewBox="0 0 115 83" version="1.1" xmlns="http://www.w3.org/2000/svg" xmlns:xlink="http://www.w3.org/1999/xlink">
    <!-- Generator: Sketch 3.6.1 (26313) - http://www.bohemiancoding.com/sketch -->
    <title>code</title>
    <desc>Created with Sketch.</desc>
    <defs></defs>
    <g id="Page-1" stroke="none" stroke-width="1" fill="none" fill-rule="evenodd">
        <g id="Artboard-8" transform="translate(-379.000000, -432.000000)" fill="#FFFFFF">
            <g id="code" transform="translate(379.000000, 432.000000)">
                <g id="Group">
                    <g id="Shape">
                        <path d="M112.366856,0 L2.55379219,0 C1.1440989,0 0,1.14914283 0,2.56505097 L0,7.6951529 L0,55.1485958 L0,62.8437487 C0,64.2596569 1.1440989,65.4087997 2.55379219,65.4087997 L40.2222269,65.4087997 L40.2222269,79.51658 L30.6455062,79.51658 C29.9393827,79.51658 29.3686101,80.0898689 29.3686101,80.7991055 C29.3686101,81.5083421 29.9393827,82.081631 30.6455062,82.081631 L41.499123,82.081631 L73.4215254,82.081631 L84.2751422,82.081631 C84.9812657,82.081631 85.5520383,81.5083421 85.5520383,80.7991055 C85.5520383,80.0898689 84.9812657,79.51658 84.2751422,79.51658 L74.6984215,79.51658 L74.6984215,65.4087997 L112.366856,65.4087997 C113.77655,65.4087997 114.920648,64.2596569 114.920648,62.8437487 L114.920648,55.1485958 L114.920648,7.6951529 L114.920648,2.56505097 C114.920648,1.14914283 113.77655,0 112.366856,0 L112.366856,0 Z M2.55379219,2.56505097 L112.366856,2.56505097 L112.366856,5.13010194 L2.55379219,5.13010194 L2.55379219,2.56505097 L2.55379219,2.56505097 Z M2.55379219,7.6951529 L112.366856,7.6951529 L112.366856,55.1485958 L2.55379219,55.1485958 L2.55379219,7.6951529 L2.55379219,7.6951529 Z M42.7760191,79.51658 L42.7760191,65.4087997 L72.1446293,65.4087997 L72.1446293,79.51658 L42.7760191,79.51658 L42.7760191,79.51658 Z M112.366856,62.8437487 L73.4215254,62.8437487 L41.499123,62.8437487 L2.55379219,62.8437487 L2.55379219,57.7136468 L112.366856,57.7136468 L112.366856,62.8437487 L112.366856,62.8437487 Z"></path>
                        <path d="M44.1479525,23.0951235 C43.6486861,22.593656 42.8416878,22.593656 42.3424214,23.0951235 L33.3134891,32.1638612 C32.8142228,32.6653286 32.8142228,33.4758847 33.3134891,33.9773522 L42.3424214,43.0460899 C42.5914161,43.2961824 42.9183015,43.4218699 43.2451869,43.4218699 C43.5720723,43.4218699 43.8989577,43.2961824 44.1479525,43.0460899 C44.6472189,42.5446224 44.6472189,41.7340663 44.1479525,41.2325989 L36.0217857,33.0706067 L44.1479525,24.9086145 C44.6472189,24.407147 44.6472189,23.5953084 44.1479525,23.0951235 L44.1479525,23.0951235 Z"></path>
                        <path d="M72.4499315,23.0951235 C71.9506651,22.593656 71.1436668,22.593656 70.6444004,23.0951235 C70.145134,23.5965909 70.145134,24.407147 70.6444004,24.9086145 L78.7705671,33.0706067 L70.6444004,41.2325989 C70.145134,41.7340663 70.145134,42.5446224 70.6444004,43.0460899 C70.8933951,43.2961824 71.2202805,43.4218699 71.5471659,43.4218699 C71.8740513,43.4218699 72.2009367,43.2961824 72.4499315,43.0460899 L81.4788637,33.9773522 C81.9781301,33.4758847 81.9781301,32.6653286 81.4788637,32.1638612 L72.4499315,23.0951235 L72.4499315,23.0951235 Z"></path>
                        <path d="M71.0913933,32.246355 L42.9996793,32.246355 C42.2935557,32.246355 41.7227832,32.8196439 41.7227832,33.5288805 C41.7227832,34.2381171 42.2935557,34.811406 42.9996793,34.811406 L71.0913933,34.811406 C71.7975169,34.811406 72.3682894,34.2381171 72.3682894,33.5288805 C72.3682894,32.8196439 71.7975169,32.246355 71.0913933,32.246355 L71.0913933,32.246355 Z" transform="translate(57.045536, 33.528881) rotate(127.000000) translate(-57.045536, -33.528881) "></path>
                    </g>
                </g>
            </g>
        </g>
    </g>
</svg>