<?xml version="1.0" encoding="UTF-8" standalone="no"?>
<svg width="51px" height="44px" viewBox="0 0 51 44" version="1.1" xmlns="http://www.w3.org/2000/svg" xmlns:xlink="http://www.w3.org/1999/xlink">
    <!-- Generator: Sketch 3.6.1 (26313) - http://www.bohemiancoding.com/sketch -->
    <title>toolbox copy</title>
    <desc>Created with Sketch.</desc>
    <defs></defs>
    <g id="Page-1" stroke="none" stroke-width="1" fill="none" fill-rule="evenodd">
        <g id="Skillsets-Alternate-Copy" transform="translate(-25.000000, -431.000000)" fill="#FFFFFF">
            <g id="Maintenance" transform="translate(25.000000, 429.000000)">
                <g id="toolbox-copy" transform="translate(0.000000, 2.000000)">
                    <g id="Group">
                        <path d="M48.8197064,10.4236533 L36.1627455,10.4236533 L36.1627455,6.25419198 C36.1627455,2.80555589 33.7294191,0 30.7383337,0 L19.88951,0 C16.8985349,0 14.4650982,2.80555589 14.4650982,6.25419198 L14.4650982,10.4236533 L1.80813728,10.4236533 C0.809600517,10.4236533 0,11.3569724 0,12.508384 L0,20.8473066 C0,21.998591 0.809600517,22.9320373 1.80813728,22.9320373 L1.80813728,41.6946132 C1.80813728,42.8458976 2.61773779,43.7793439 3.61627455,43.7793439 L47.0115692,43.7793439 C48.0102162,43.7793439 48.8197064,42.8458976 48.8197064,41.6946132 L48.8197064,22.9320373 C49.8183535,22.9320373 50.6278437,21.998591 50.6278437,20.8473066 L50.6278437,12.508384 C50.6278437,11.3569724 49.8183535,10.4236533 48.8197064,10.4236533 L48.8197064,10.4236533 Z M16.2732355,6.25419198 C16.2732355,3.95149606 17.8923262,2.08473066 19.88951,2.08473066 L30.7383337,2.08473066 C32.7355175,2.08473066 34.3546082,3.95149606 34.3546082,6.25419198 L34.3546082,10.4236533 L32.546471,10.4236533 L32.546471,6.25419198 C32.546471,5.10278044 31.7369807,4.16946132 30.7383337,4.16946132 L19.88951,4.16946132 C18.890863,4.16946132 18.0813728,5.10278044 18.0813728,6.25419198 L18.0813728,10.4236533 L16.2732355,10.4236533 L16.2732355,6.25419198 L16.2732355,6.25419198 Z M30.7383337,6.25419198 L30.7383337,10.4236533 L19.88951,10.4236533 L19.88951,6.25419198 L30.7383337,6.25419198 L30.7383337,6.25419198 Z M47.0115692,41.6946132 L3.61627455,41.6946132 L3.61627455,22.9320373 L21.6976473,22.9320373 L21.6976473,26.0591333 C21.6976473,28.3581392 23.3199384,30.2285946 25.3139219,30.2285946 C27.3079053,30.2285946 28.9301964,28.3581392 28.9301964,26.0591333 L28.9301964,22.9320373 L47.0115692,22.9320373 L47.0115692,41.6946132 L47.0115692,41.6946132 Z M27.1220591,25.0167679 L27.1220591,26.0591333 C27.1220591,27.2105448 26.3125689,28.1438639 25.3139219,28.1438639 C24.3153851,28.1438639 23.5057846,27.2105448 23.5057846,26.0591333 L23.5057846,25.0167679 L27.1220591,25.0167679 L27.1220591,25.0167679 Z M23.5057846,22.9320373 L23.5057846,18.7625759 L27.1220591,18.7625759 L27.1220591,22.9320373 L23.5057846,22.9320373 L23.5057846,22.9320373 Z M48.8197064,20.8473066 L28.9301964,20.8473066 L28.9301964,18.7625759 C28.9301964,17.6111644 28.1207062,16.6778453 27.1220591,16.6778453 L23.5057846,16.6778453 C22.5072478,16.6778453 21.6976473,17.6111644 21.6976473,18.7625759 L21.6976473,20.8473066 L1.80813728,20.8473066 L1.80813728,12.508384 L48.8197064,12.508384 L48.8197064,20.8473066 L48.8197064,20.8473066 Z" id="Shape"></path>
                    </g>
                </g>
            </g>
        </g>
    </g>
</svg>