<?xml version="1.0" encoding="UTF-8" standalone="no"?>
<svg width="102px" height="79px" viewBox="0 0 102 79" version="1.1" xmlns="http://www.w3.org/2000/svg" xmlns:xlink="http://www.w3.org/1999/xlink">
    <!-- Generator: Sketch 3.6.1 (26313) - http://www.bohemiancoding.com/sketch -->
    <title>toolbox</title>
    <desc>Created with Sketch.</desc>
    <defs></defs>
    <g id="Page-1" stroke="none" stroke-width="1" fill="none" fill-rule="evenodd">
        <g id="Artboard-8" transform="translate(-965.000000, -432.000000)" fill="#FFFFFF">
            <g id="toolbox" transform="translate(965.000000, 432.000000)">
                <g id="Group">
                    <path d="M97.8562656,18.5981629 L72.4861227,18.5981629 L72.4861227,11.1588977 C72.4861227,5.00574836 67.6086612,0 61.6132043,0 L39.8673675,0 C33.8721316,0 28.9944491,5.00574836 28.9944491,11.1588977 L28.9944491,18.5981629 L3.62430613,18.5981629 C1.62279721,18.5981629 0,20.263416 0,22.3177955 L0,37.1963258 C0,39.2504784 1.62279721,40.9159583 3.62430613,40.9159583 L3.62430613,74.3926515 C3.62430613,76.4468041 5.24710334,78.1122841 7.24861227,78.1122841 L94.2319595,78.1122841 C96.2336895,78.1122841 97.8562656,76.4468041 97.8562656,74.3926515 L97.8562656,40.9159583 C99.8579956,40.9159583 101.480572,39.2504784 101.480572,37.1963258 L101.480572,22.3177955 C101.480572,20.263416 99.8579956,18.5981629 97.8562656,18.5981629 L97.8562656,18.5981629 Z M32.6187552,11.1588977 C32.6187552,7.05036566 35.8641285,3.71963258 39.8673675,3.71963258 L61.6132043,3.71963258 C65.6164432,3.71963258 68.8618165,7.05036566 68.8618165,11.1588977 L68.8618165,18.5981629 L65.2375104,18.5981629 L65.2375104,11.1588977 C65.2375104,9.10451825 63.6149343,7.43926515 61.6132043,7.43926515 L39.8673675,7.43926515 C37.8656375,7.43926515 36.2430613,9.10451825 36.2430613,11.1588977 L36.2430613,18.5981629 L32.6187552,18.5981629 L32.6187552,11.1588977 L32.6187552,11.1588977 Z M61.6132043,11.1588977 L61.6132043,18.5981629 L39.8673675,18.5981629 L39.8673675,11.1588977 L61.6132043,11.1588977 L61.6132043,11.1588977 Z M94.2319595,74.3926515 L7.24861227,74.3926515 L7.24861227,40.9159583 L43.4916736,40.9159583 L43.4916736,46.4954072 C43.4916736,50.5973555 46.743462,53.9346724 50.7402859,53.9346724 C54.7371098,53.9346724 57.9888981,50.5973555 57.9888981,46.4954072 L57.9888981,40.9159583 L94.2319595,40.9159583 L94.2319595,74.3926515 L94.2319595,74.3926515 Z M54.364592,44.6355909 L54.364592,46.4954072 C54.364592,48.5497867 52.7420159,50.2150398 50.7402859,50.2150398 C48.7387769,50.2150398 47.1159797,48.5497867 47.1159797,46.4954072 L47.1159797,44.6355909 L54.364592,44.6355909 L54.364592,44.6355909 Z M47.1159797,40.9159583 L47.1159797,33.4766932 L54.364592,33.4766932 L54.364592,40.9159583 L47.1159797,40.9159583 L47.1159797,40.9159583 Z M97.8562656,37.1963258 L57.9888981,37.1963258 L57.9888981,33.4766932 C57.9888981,31.4223137 56.366322,29.7570606 54.364592,29.7570606 L47.1159797,29.7570606 C45.1144708,29.7570606 43.4916736,31.4223137 43.4916736,33.4766932 L43.4916736,37.1963258 L3.62430613,37.1963258 L3.62430613,22.3177955 L97.8562656,22.3177955 L97.8562656,37.1963258 L97.8562656,37.1963258 Z" id="Shape"></path>
                </g>
            </g>
        </g>
    </g>
</svg>