<?xml version="1.0" encoding="UTF-8" standalone="no"?>
<svg width="63px" height="40px" viewBox="0 0 63 40" version="1.1" xmlns="http://www.w3.org/2000/svg" xmlns:xlink="http://www.w3.org/1999/xlink">
    <!-- Generator: Sketch 3.6.1 (26313) - http://www.bohemiancoding.com/sketch -->
    <title>web-resp copy</title>
    <desc>Created with Sketch.</desc>
    <defs></defs>
    <g id="Page-1" stroke="none" stroke-width="1" fill="none" fill-rule="evenodd">
        <g id="Skillsets-Alternate-Copy" transform="translate(-19.000000, -288.000000)" fill="#FFFFFF">
            <g id="Responsive-Design" transform="translate(19.000000, 286.000000)">
                <g id="web-resp-copy" transform="translate(0.000000, 2.000000)">
                    <g id="Group">
                        <path d="M46.7902343,37.0171528 C46.7902343,36.3747727 47.2024831,35.8929876 47.7521481,35.8929876 C48.3018131,35.8929876 48.7140619,36.3747727 48.7140619,37.0171528 C48.7140619,37.6595329 48.3018131,38.141318 47.7521481,38.141318 C47.2024831,38.141318 46.7902343,37.6595329 46.7902343,37.0171528 L46.7902343,37.0171528 Z M57.989659,7.86915613 L57.989659,14.9353371 L56.5467883,14.9353371 L56.5467883,8.67213124 L38.2017185,8.67213124 L38.2017185,35.17031 L51.3249707,35.17031 L51.3249707,37.8201279 C51.3249707,38.301913 51.462387,38.623103 51.7372195,38.9442931 L37.5833453,38.9442931 C37.1023885,38.9442931 36.6901397,38.462508 36.6901397,37.8201279 L36.6901397,7.86915613 C36.6901397,7.22677604 37.1023885,6.74499097 37.5833453,6.74499097 L57.0964533,6.74499097 C57.6461184,6.74499097 57.989659,7.22677604 57.989659,7.86915613 L57.989659,7.86915613 Z M46.6528181,37.0171528 C46.6528181,37.7398304 47.133775,38.301913 47.7521481,38.301913 C48.3705212,38.301913 48.8514781,37.7398304 48.8514781,37.0171528 C48.8514781,36.2944752 48.3705212,35.7323926 47.7521481,35.7323926 C47.133775,35.7323926 46.6528181,36.2944752 46.6528181,37.0171528 L46.6528181,37.0171528 Z M47.5460237,7.86915613 C47.5460237,7.7085611 47.4773156,7.62826359 47.3398993,7.62826359 C47.2024831,7.62826359 47.133775,7.7085611 47.133775,7.86915613 C47.133775,8.02975115 47.2024831,8.11004866 47.3398993,8.11004866 C47.4773156,8.11004866 47.5460237,7.94945364 47.5460237,7.86915613 L47.5460237,7.86915613 Z M31.0560733,13.7308745 L28.6512889,18.6290227 L27.2084182,15.7383123 L24.1165525,21.9212206 L27.0022938,21.9212206 L30.3002839,21.9212206 L35.1785609,21.9212206 L31.0560733,13.7308745 L31.0560733,13.7308745 Z M48.233105,19.5122953 L46.7215262,22.4833032 L45.8283206,20.716758 L43.9732011,24.5710385 L45.6909043,24.5710385 L47.68344,24.5710385 L50.6378894,24.5710385 L48.233105,19.5122953 L48.233105,19.5122953 Z M57.8522427,24.4104435 L56.8216208,26.4981788 L56.2032477,25.2937161 L54.8977933,27.943534 L56.1345396,27.943534 L57.5087021,27.943534 L59.5699459,27.943534 L57.8522427,24.4104435 L57.8522427,24.4104435 Z M57.0277452,35.8126901 C56.4780802,35.8126901 56.0658314,36.2944752 56.0658314,36.9368553 C56.0658314,37.5792354 56.4780802,38.0610205 57.0277452,38.0610205 C57.5774102,38.0610205 57.989659,37.5792354 57.989659,36.9368553 C57.989659,36.2944752 57.5087021,35.8126901 57.0277452,35.8126901 L57.0277452,35.8126901 Z M62.5243954,16.2200973 L62.5243954,37.9807229 C62.5243954,38.5428055 62.0434385,39.0245906 61.4937735,39.0245906 L52.4930089,39.0245906 C51.9433438,39.0245906 51.462387,38.5428055 51.462387,37.9807229 L51.462387,16.2200973 C51.462387,15.6580147 51.9433438,15.1762297 52.4930089,15.1762297 L61.4937735,15.1762297 C62.0434385,15.1762297 62.5243954,15.6580147 62.5243954,16.2200973 L62.5243954,16.2200973 Z M56.4780802,16.7018824 C56.4780802,16.7821799 56.5467883,16.8624774 56.6154965,16.8624774 L57.9209509,16.8624774 C57.989659,16.8624774 58.0583671,16.7821799 58.0583671,16.7018824 C58.0583671,16.6215849 57.989659,16.5412874 57.9209509,16.5412874 L56.6154965,16.5412874 C56.4780802,16.5412874 56.4780802,16.6215849 56.4780802,16.7018824 L56.4780802,16.7018824 Z M55.6535827,16.7018824 C55.6535827,16.7821799 55.7222908,16.8624774 55.7909989,16.8624774 C55.8597071,16.8624774 55.9284152,16.7821799 55.9284152,16.7018824 C55.9284152,16.6215849 55.8597071,16.5412874 55.7909989,16.5412874 C55.7222908,16.5412874 55.6535827,16.6215849 55.6535827,16.7018824 L55.6535827,16.7018824 Z M58.1270752,36.9368553 C58.1270752,36.2141777 57.6461184,35.6520951 57.0277452,35.6520951 C56.4093721,35.6520951 55.9284152,36.2141777 55.9284152,36.9368553 C55.9284152,37.6595329 56.4093721,38.2216155 57.0277452,38.2216155 C57.6461184,38.2216155 58.1270752,37.6595329 58.1270752,36.9368553 L58.1270752,36.9368553 Z M61.9747303,18.1472376 L52.0807601,18.1472376 L52.0807601,35.009715 L61.9747303,35.009715 L61.9747303,18.1472376 L61.9747303,18.1472376 Z M36.4840153,38.2216155 L36.4840153,38.0610205 L36.4840153,35.8929876 L33.6669821,35.8929876 L33.6669821,36.1338802 C33.6669821,36.4550702 33.3921496,36.7762603 32.9799009,36.7762603 L25.9029638,36.7762603 C25.490715,36.7762603 25.2158825,36.5353677 25.2158825,36.1338802 L25.2158825,35.8929876 L0.274832507,35.8929876 L0.274832507,37.2580453 C0.274832507,38.2216155 1.16803816,39.0245906 2.19866006,39.0245906 L36.4153072,39.0245906 L36.8275559,39.0245906 C36.8275559,39.0245906 36.4840153,38.7034005 36.4840153,38.2216155 L36.4840153,38.2216155 Z M53.9358795,2.32862783 L53.9358795,7.06618101 L51.8746357,7.06618101 L51.8746357,2.40892535 L6.9395208,2.40892535 L6.9395208,33.2431698 L36.4840153,33.2431698 L36.4840153,35.4915001 L4.878277,35.4915001 L4.878277,2.40892535 C4.878277,1.20446267 5.77148265,0.240892535 6.80210455,0.240892535 L52.012052,0.240892535 C53.111382,0.240892535 53.9358795,1.20446267 53.9358795,2.32862783 L53.9358795,2.32862783 Z M29.6132026,1.28476018 C29.6132026,1.12416516 29.5444945,1.04386765 29.4070783,1.04386765 C29.269662,1.04386765 29.2009539,1.12416516 29.2009539,1.28476018 C29.2009539,1.44535521 29.269662,1.52565272 29.4070783,1.52565272 C29.5444945,1.52565272 29.6132026,1.44535521 29.6132026,1.28476018 L29.6132026,1.28476018 Z" id="Shape"></path>
                    </g>
                </g>
            </g>
        </g>
    </g>
</svg>