<?xml version="1.0" encoding="UTF-8" standalone="no"?>
<svg width="134px" height="75px" viewBox="0 0 134 75" version="1.1" xmlns="http://www.w3.org/2000/svg" xmlns:xlink="http://www.w3.org/1999/xlink">
    <!-- Generator: Sketch 3.6.1 (26313) - http://www.bohemiancoding.com/sketch -->
    <title>web-resp</title>
    <desc>Created with Sketch.</desc>
    <defs></defs>
    <g id="Page-1" stroke="none" stroke-width="1" fill="none" fill-rule="evenodd">
        <g id="Artboard-8" transform="translate(-664.000000, -432.000000)" fill="#FFFFFF">
            <g id="web-resp" transform="translate(664.000000, 432.000000)">
                <g id="Group">
                    <path d="M99.9566938,70.2958027 C99.9566938,69.0759189 100.83737,68.1610061 102.011604,68.1610061 C103.185838,68.1610061 104.066514,69.0759189 104.066514,70.2958027 C104.066514,71.5156865 103.185838,72.4305993 102.011604,72.4305993 C100.83737,72.4305993 99.9566938,71.5156865 99.9566938,70.2958027 L99.9566938,70.2958027 Z M123.881717,14.9435763 L123.881717,28.3622978 L120.799352,28.3622978 L120.799352,16.468431 L81.6092831,16.468431 L81.6092831,66.7886369 L109.644127,66.7886369 L109.644127,71.8206574 C109.644127,72.7355703 109.937685,73.3455122 110.524802,73.955454 L80.2882695,73.955454 C79.2608145,73.955454 78.3801388,73.0405412 78.3801388,71.8206574 L78.3801388,14.9435763 C78.3801388,13.7236925 79.2608145,12.8087797 80.2882695,12.8087797 L121.973587,12.8087797 C123.147821,12.8087797 123.881717,13.7236925 123.881717,14.9435763 L123.881717,14.9435763 Z M99.6631353,70.2958027 C99.6631353,71.668172 100.69059,72.7355703 102.011604,72.7355703 C103.332617,72.7355703 104.360072,71.668172 104.360072,70.2958027 C104.360072,68.9234335 103.332617,67.8560352 102.011604,67.8560352 C100.69059,67.8560352 99.6631353,68.9234335 99.6631353,70.2958027 L99.6631353,70.2958027 Z M101.571266,14.9435763 C101.571266,14.6386053 101.424487,14.4861199 101.130928,14.4861199 C100.83737,14.4861199 100.69059,14.6386053 100.69059,14.9435763 C100.69059,15.2485472 100.83737,15.4010327 101.130928,15.4010327 C101.424487,15.4010327 101.571266,15.0960618 101.571266,14.9435763 L101.571266,14.9435763 Z M66.3442373,26.0750158 L61.2069623,35.3766296 L58.1245973,29.8871526 L51.5195294,41.6285339 L57.6842594,41.6285339 L64.7296652,41.6285339 L75.1509945,41.6285339 L66.3442373,26.0750158 L66.3442373,26.0750158 Z M103.039059,37.0539698 L99.8099146,42.6959322 L97.9017838,39.3412518 L93.9387431,46.6605545 L97.6082253,46.6605545 L101.864825,46.6605545 L108.176334,46.6605545 L103.039059,37.0539698 L103.039059,37.0539698 Z M123.588159,46.3555836 L121.38647,50.3202058 L120.065456,48.0329238 L117.27665,53.0649443 L119.918677,53.0649443 L122.854262,53.0649443 L127.257641,53.0649443 L123.588159,46.3555836 L123.588159,46.3555836 Z M121.826807,68.0085206 C120.652573,68.0085206 119.771897,68.9234335 119.771897,70.1433172 C119.771897,71.363201 120.652573,72.2781139 121.826807,72.2781139 C123.001042,72.2781139 123.881717,71.363201 123.881717,70.1433172 C123.881717,68.9234335 122.854262,68.0085206 121.826807,68.0085206 L121.826807,68.0085206 Z M133.56915,30.8020654 L133.56915,72.1256284 C133.56915,73.1930267 132.541695,74.1079395 131.367461,74.1079395 L112.139375,74.1079395 C110.96514,74.1079395 109.937685,73.1930267 109.937685,72.1256284 L109.937685,30.8020654 C109.937685,29.7346671 110.96514,28.8197543 112.139375,28.8197543 L131.367461,28.8197543 C132.541695,28.8197543 133.56915,29.7346671 133.56915,30.8020654 L133.56915,30.8020654 Z M120.652573,31.7169782 C120.652573,31.8694637 120.799352,32.0219492 120.946132,32.0219492 L123.734938,32.0219492 C123.881717,32.0219492 124.028497,31.8694637 124.028497,31.7169782 C124.028497,31.5644928 123.881717,31.4120073 123.734938,31.4120073 L120.946132,31.4120073 C120.652573,31.4120073 120.652573,31.5644928 120.652573,31.7169782 L120.652573,31.7169782 Z M118.891222,31.7169782 C118.891222,31.8694637 119.038001,32.0219492 119.18478,32.0219492 C119.33156,32.0219492 119.478339,31.8694637 119.478339,31.7169782 C119.478339,31.5644928 119.33156,31.4120073 119.18478,31.4120073 C119.038001,31.4120073 118.891222,31.5644928 118.891222,31.7169782 L118.891222,31.7169782 Z M124.175276,70.1433172 C124.175276,68.770948 123.147821,67.7035497 121.826807,67.7035497 C120.505794,67.7035497 119.478339,68.770948 119.478339,70.1433172 C119.478339,71.5156865 120.505794,72.5830848 121.826807,72.5830848 C123.147821,72.5830848 124.175276,71.5156865 124.175276,70.1433172 L124.175276,70.1433172 Z M132.394916,34.4617167 L111.258699,34.4617167 L111.258699,66.4836659 L132.394916,66.4836659 L132.394916,34.4617167 L132.394916,34.4617167 Z M77.9398009,72.5830848 L77.9398009,72.2781139 L77.9398009,68.1610061 L71.9218502,68.1610061 L71.9218502,68.6184625 C71.9218502,69.2284044 71.334733,69.8383463 70.4540573,69.8383463 L55.3357909,69.8383463 C54.4551151,69.8383463 53.867998,69.3808899 53.867998,68.6184625 L53.867998,68.1610061 L0.587117144,68.1610061 L0.587117144,70.7532591 C0.587117144,72.5830848 2.49524786,74.1079395 4.69693716,74.1079395 L77.7930216,74.1079395 L78.6736974,74.1079395 C78.6736974,74.1079395 77.9398009,73.4979976 77.9398009,72.5830848 L77.9398009,72.5830848 Z M115.22174,4.4220787 L115.22174,13.4187216 L110.818361,13.4187216 L110.818361,4.57456417 L14.8247079,4.57456417 L14.8247079,63.1289855 L77.9398009,63.1289855 L77.9398009,67.3985787 L10.4213293,67.3985787 L10.4213293,4.57456417 C10.4213293,2.28728208 12.32946,0.457456417 14.5311493,0.457456417 L111.11192,0.457456417 C113.460388,0.457456417 115.22174,2.28728208 115.22174,4.4220787 L115.22174,4.4220787 Z M63.2618723,2.43976756 C63.2618723,2.13479661 63.115093,1.98231114 62.8215345,1.98231114 C62.5279759,1.98231114 62.3811966,2.13479661 62.3811966,2.43976756 C62.3811966,2.7447385 62.5279759,2.89722397 62.8215345,2.89722397 C63.115093,2.89722397 63.2618723,2.7447385 63.2618723,2.43976756 L63.2618723,2.43976756 Z" id="Shape"></path>
                </g>
            </g>
        </g>
    </g>
</svg>